<?xml version="1.0" standalone="no"?>
<!DOCTYPE svg PUBLIC "-//W3C//DTD SVG 20010904//EN"
 "http://www.w3.org/TR/2001/REC-SVG-20010904/DTD/svg10.dtd">
<svg version="1.0" xmlns="http://www.w3.org/2000/svg"
 width="640.000000pt" height="640.000000pt" viewBox="0 0 640.000000 640.000000"
 preserveAspectRatio="xMidYMid meet">
<metadata>
Created by potrace 1.14, written by Peter Selinger 2001-2017
</metadata>
<g transform="translate(0.000000,640.000000) scale(0.100000,-0.100000)"
fill="#000000" stroke="none">
<path d="M2551 6026 c-9 -11 -10 -20 -1 -35 15 -28 17 -27 18 14 2 39 0 41
-17 21z"/>
<path d="M2506 5957 c-3 -13 -12 -24 -20 -24 -8 0 -15 3 -14 6 2 20 -4 20 -20
1 -13 -16 -30 -23 -67 -25 -43 -2 -46 -1 -30 11 21 15 9 19 -14 5 -8 -5 -12
-18 -8 -30 3 -12 1 -19 -3 -16 -5 3 -16 -5 -24 -17 -9 -12 -16 -17 -16 -11 0
13 -38 24 -42 12 -7 -19 -31 11 -32 40 -1 35 -2 36 -20 19 -11 -10 -11 -15 -1
-23 7 -5 15 -27 18 -48 6 -35 4 -38 -16 -31 -37 12 -61 44 -33 44 8 0 18 5 21
10 4 6 -3 8 -17 6 -13 -3 -29 -5 -36 -5 -10 -1 -10 -6 -2 -21 8 -15 8 -20 -2
-18 -6 2 -12 -4 -13 -12 0 -10 -12 -16 -35 -18 -19 -2 -40 -8 -47 -14 -7 -5
-18 -6 -25 -2 -7 4 -2 -5 11 -19 14 -15 19 -27 13 -27 -6 0 -14 5 -17 10 -5 8
-11 8 -20 0 -11 -9 -12 -6 -8 12 4 20 2 19 -16 -7 -12 -16 -20 -38 -17 -48 2
-9 0 -15 -5 -11 -5 3 -9 12 -9 19 0 9 -6 12 -15 9 -12 -5 -12 -9 3 -31 16 -26
16 -26 -6 -14 -16 8 -22 9 -22 0 0 -6 -10 -19 -22 -28 -14 -12 -21 -29 -21
-50 0 -21 -4 -30 -13 -27 -6 2 -20 -1 -31 -9 -17 -13 -16 -14 10 -20 15 -4 27
-11 27 -17 0 -5 -9 -7 -19 -3 -22 7 -38 -12 -23 -27 7 -7 2 -21 -14 -45 -16
-24 -24 -50 -24 -79 0 -23 -5 -65 -11 -92 -7 -28 -8 -58 -4 -68 4 -11 9 -34
10 -52 1 -18 5 -35 8 -38 5 -5 -28 -44 -38 -44 -12 0 -4 49 10 60 31 25 16 33
-47 25 -83 -10 -114 -8 -147 8 -24 12 -31 12 -46 0 -11 -7 -31 -13 -45 -13
-14 0 -31 -5 -37 -11 -8 -8 -20 -9 -42 -1 -27 9 -32 8 -41 -8 -6 -11 -9 -23
-8 -27 6 -22 -15 -53 -36 -53 -28 0 -42 15 -51 52 -7 26 -9 27 -52 21 -37 -5
-48 -3 -59 11 -18 25 -48 16 -52 -14 -7 -66 -11 -72 -42 -65 -25 6 -30 2 -45
-29 -11 -23 -15 -48 -11 -73 7 -46 18 -321 20 -497 1 -113 4 -130 20 -142 19
-13 19 -15 1 -53 -14 -33 -15 -45 -6 -72 6 -18 11 -45 11 -61 0 -26 3 -29 23
-23 22 7 67 52 67 69 0 4 7 6 14 3 10 -4 13 -1 9 9 -3 8 1 14 10 14 9 0 19
-10 23 -22 4 -13 14 -29 23 -36 13 -10 11 -10 -12 -2 -33 12 -45 -6 -27 -39 6
-12 9 -25 6 -29 -3 -5 -1 -25 3 -45 8 -33 7 -36 -13 -34 -15 1 -20 -3 -18 -15
2 -15 -5 -18 -35 -18 -92 0 -145 -25 -96 -45 17 -6 17 -7 -1 -20 -10 -8 -15
-18 -11 -24 9 -16 25 -13 25 5 0 8 5 12 10 9 6 -3 10 -1 10 4 0 16 26 13 40
-4 9 -11 8 -18 -9 -36 -17 -18 -23 -20 -36 -9 -12 10 -18 10 -32 -1 -15 -12
-16 -12 -11 3 4 9 1 18 -6 21 -9 4 -12 -3 -9 -21 3 -26 3 -26 -7 -4 -10 24
-30 22 -30 -4 0 -8 -4 -14 -9 -14 -11 0 -20 -46 -13 -72 4 -17 11 -19 61 -14
31 3 57 10 59 16 2 5 8 10 13 10 6 0 7 -6 2 -12 -4 -7 -8 -20 -8 -28 0 -8 -8
-16 -17 -18 -12 -2 -16 1 -13 10 4 10 -11 13 -65 13 -66 0 -70 -1 -70 -22 0
-20 -52 -92 -73 -102 -4 -1 -17 -12 -27 -24 l-20 -21 -44 23 c-25 12 -47 27
-50 34 -7 17 -26 -12 -26 -41 0 -12 -5 -21 -12 -20 -8 2 -12 -5 -10 -17 2 -19
1 -18 -14 3 -22 29 -34 28 -34 -4 0 -14 -4 -23 -10 -19 -5 3 -10 1 -10 -5 0
-7 -7 -10 -15 -6 -8 3 -14 2 -12 -2 1 -4 -17 -45 -39 -92 -78 -161 -125 -303
-133 -405 -1 -5 -15 -26 -31 -45 -16 -19 -30 -40 -30 -46 0 -7 -7 -14 -15 -18
-8 -3 -15 -16 -16 -28 0 -13 -3 -18 -5 -13 -2 6 -32 9 -72 7 -104 -5 -114 -5
-122 8 -6 9 -9 9 -14 -1 -5 -11 -7 -11 -12 -1 -9 20 -34 -5 -34 -34 0 -13 1
-24 3 -24 1 0 20 7 42 14 27 10 46 11 58 4 10 -5 49 -12 88 -15 62 -5 71 -9
83 -32 11 -20 11 -32 1 -61 -6 -19 -15 -76 -18 -125 -6 -85 -27 -258 -78 -635
-18 -135 -20 -204 -19 -529 0 -206 5 -418 11 -470 11 -96 62 -315 99 -424 11
-31 20 -64 20 -71 0 -26 -53 -180 -71 -206 -23 -34 -78 -216 -79 -262 0 -17
103 -18 2026 -18 l2026 0 -7 23 c-4 12 -10 42 -12 67 -3 25 -9 47 -14 50 -4 3
-13 44 -18 91 -5 47 -19 108 -30 136 l-20 51 45 69 c56 86 108 194 168 352 38
98 50 145 57 220 5 53 14 135 19 182 6 48 10 123 10 168 0 50 6 96 15 118 20
46 19 48 -10 49 -30 2 -55 21 -55 41 0 11 7 13 33 8 17 -4 36 -13 40 -19 11
-16 -4 45 -18 74 -23 45 -85 305 -85 355 0 15 -7 25 -21 28 -12 3 -18 10 -14
16 3 6 10 9 14 6 5 -2 4 15 0 38 -5 23 -15 78 -23 122 -8 44 -22 109 -30 145
-9 36 -19 88 -22 115 -3 28 -10 52 -15 53 -5 2 -12 21 -15 43 -4 21 -10 36
-15 33 -5 -3 -6 2 -3 10 3 9 9 14 14 11 4 -2 5 19 3 48 -4 43 -10 57 -36 79
-18 15 -27 28 -21 28 7 0 12 10 12 23 2 78 10 164 16 178 4 10 -1 19 -16 28
-13 6 -29 26 -36 44 -24 59 -90 183 -130 243 -21 32 -46 73 -55 89 -17 34 -59
61 -76 51 -6 -4 -11 -1 -11 8 0 8 4 17 9 20 13 8 70 -26 76 -45 9 -27 115
-136 115 -118 0 10 15 20 38 27 38 12 82 7 82 -9 0 -10 34 -12 43 -2 4 3 3 11
-2 17 -14 18 -20 56 -10 62 5 3 7 9 4 14 -3 5 -1 11 5 15 5 3 10 19 10 34 0
20 -7 31 -27 40 -16 8 -35 17 -43 21 -20 10 -24 44 -7 59 12 9 21 9 41 0 14
-7 26 -16 26 -21 0 -4 5 -8 10 -8 14 0 12 28 -5 77 -8 23 -17 56 -20 73 -3 17
-13 42 -21 55 -23 35 -11 62 26 60 21 -1 30 3 30 13 0 24 -43 113 -49 103 -10
-16 -37 12 -44 46 -5 26 -3 35 14 43 11 6 28 8 39 5 27 -8 32 18 19 100 -6 39
-12 113 -14 165 -4 82 -2 100 15 128 11 17 27 32 35 32 8 0 15 5 15 10 0 6 7
10 16 10 12 0 15 -7 12 -25 -4 -18 -2 -23 6 -16 15 12 51 8 70 -8 11 -9 16
-30 16 -62 0 -27 5 -49 10 -49 16 0 12 -42 -6 -62 -15 -16 -15 -18 -1 -24 35
-13 27 -104 -9 -104 -21 0 -23 -28 -8 -82 22 -80 27 -158 11 -177 -25 -29 -27
-60 -5 -72 19 -10 41 -9 108 7 14 3 68 5 120 3 152 -3 209 0 229 11 29 15 72
12 92 -6 20 -18 59 -11 59 12 0 8 7 14 15 14 16 0 69 49 61 58 -3 2 -26 -3
-52 -13 -34 -13 -49 -14 -57 -6 -6 6 -19 11 -29 11 -10 0 -18 6 -18 13 0 16
-38 40 -50 32 -6 -4 -10 -19 -10 -34 0 -29 -35 -74 -53 -68 -39 13 -32 83 9
93 18 5 23 11 19 23 -4 9 -14 45 -23 80 -11 44 -21 65 -33 68 -23 6 -40 55
-30 89 l7 27 17 -26 c9 -15 17 -29 17 -32 0 -4 6 -12 13 -18 52 -49 76 -45 70
12 -5 54 14 71 79 68 81 -3 94 -52 22 -82 -28 -12 -35 -19 -29 -32 28 -67 30
-76 18 -80 -15 -5 -17 -39 -4 -47 5 -3 29 1 54 10 41 14 45 18 43 46 -1 25 5
35 27 47 24 14 29 14 37 1 11 -17 4 -48 -17 -72 -19 -21 0 -62 25 -55 31 8 37
9 55 8 28 -2 19 -21 -13 -28 -42 -8 -35 -33 14 -56 29 -14 41 -15 46 -7 6 9 9
9 14 -1 5 -11 7 -11 12 -1 7 14 34 16 34 2 0 -5 -4 -10 -10 -10 -19 0 -10 -17
14 -28 22 -10 24 -8 31 26 9 48 9 92 0 227 -12 186 -11 240 4 268 12 22 11 31
-3 68 -11 28 -15 55 -11 79 12 73 9 98 -20 136 l-28 36 21 51 22 51 -20 41
c-21 44 -26 80 -11 89 4 3 11 29 14 57 10 79 -32 142 -77 117 -10 -6 -37 -7
-63 -3 -38 5 -44 9 -41 28 3 19 11 23 62 27 48 5 60 2 70 -12 12 -17 13 -16
23 5 5 12 7 43 5 69 -3 40 -8 47 -29 53 -14 3 -44 25 -68 49 -36 37 -43 41
-52 27 -8 -13 -29 -16 -99 -17 -123 -1 -123 -1 -136 -29 -6 -14 -16 -25 -22
-25 -7 0 -18 -9 -26 -21 -8 -11 -23 -25 -34 -31 -26 -14 -36 6 -24 50 8 28 6
38 -6 51 -16 16 -96 23 -96 9 0 -4 -20 -13 -45 -19 -31 -8 -52 -21 -66 -40
-11 -16 -29 -29 -39 -29 -19 0 -81 29 -91 43 -3 4 -16 -3 -30 -16 -13 -14 -39
-28 -56 -32 -31 -6 -33 -5 -33 23 0 47 -37 50 -114 10 l-39 -21 -18 24 c-10
13 -19 28 -19 32 0 5 -9 5 -20 2 -14 -5 -20 -2 -20 9 0 9 -7 16 -15 16 -7 0
-19 8 -24 18 -11 18 -12 15 -16 -33 -5 -60 3 -72 52 -79 60 -8 124 -66 73 -66
-18 0 -26 -18 -20 -45 1 -5 3 -64 3 -129 0 -117 0 -119 -26 -138 -18 -13 -27
-29 -27 -46 0 -15 -9 -38 -20 -52 -26 -34 -107 -36 -142 -3 -21 20 -23 29 -18
75 6 61 -6 106 -32 114 -10 3 -18 10 -18 15 0 5 -7 9 -15 9 -18 0 -21 45 -3
56 6 4 26 7 43 6 31 -1 32 0 38 46 3 26 9 56 13 66 6 17 4 18 -22 12 -16 -4
-32 -12 -35 -18 -4 -6 -12 -7 -18 -4 -6 4 -8 12 -5 18 5 8 1 9 -10 5 -10 -4
-19 -7 -22 -7 -14 0 -32 -61 -26 -85 8 -27 -5 -97 -21 -122 -14 -22 -70 -15
-97 12 -14 14 -36 36 -49 50 -31 30 -55 18 -41 -21 17 -43 3 -57 -52 -52 -39
4 -46 3 -37 -8 20 -25 2 -61 -39 -77 -21 -8 -43 -21 -49 -29 -12 -14 -3 -41
13 -36 18 5 54 -23 54 -43 0 -39 -18 -59 -48 -53 -26 5 -28 3 -41 -48 -7 -29
-16 -68 -18 -85 -3 -18 -9 -30 -15 -27 -5 3 -16 0 -24 -7 -9 -7 -21 -14 -28
-15 -6 -1 -19 -5 -28 -9 -13 -5 -15 -2 -11 16 4 15 3 20 -5 15 -15 -9 -36 -47
-25 -45 23 4 25 -3 5 -19 -17 -13 -23 -30 -26 -72 -2 -31 1 -61 7 -68 6 -8 12
-37 13 -65 1 -29 4 -59 6 -67 1 -8 -3 -14 -9 -12 -17 3 -16 -13 1 -28 8 -6 14
-17 12 -23 -1 -7 -1 -9 1 -4 8 14 45 8 40 -7 -3 -7 10 -37 29 -66 19 -28 34
-56 34 -61 0 -8 26 -13 33 -7 1 2 16 -7 33 -19 28 -20 138 -66 189 -80 16 -4
17 -3 5 6 -8 6 -10 11 -5 11 14 0 28 -12 41 -35 6 -11 28 -24 50 -30 21 -5 44
-13 49 -16 6 -3 22 -9 38 -13 15 -3 27 -13 27 -21 0 -8 6 -15 14 -15 8 0 18
-5 22 -12 4 -7 3 -8 -4 -4 -18 11 -14 -10 8 -51 11 -21 20 -43 20 -50 0 -20
-27 -15 -49 8 -11 12 -24 20 -31 17 -6 -2 12 -20 40 -41 28 -21 48 -42 45 -46
-2 -5 6 -12 20 -15 14 -4 25 -13 25 -21 0 -10 -11 -7 -43 13 -24 15 -44 34
-43 42 1 8 -8 16 -19 18 -16 4 -17 2 -6 -11 11 -14 9 -15 -18 -4 -20 7 -27 15
-21 21 15 15 12 29 -6 22 -8 -3 -13 -2 -10 3 6 9 -65 34 -73 26 -2 -3 1 -11 7
-17 7 -7 12 -16 12 -22 0 -6 -5 -5 -11 1 -6 6 -18 9 -27 6 -9 -4 -13 -2 -9 4
7 12 -11 17 -95 29 -39 5 -48 10 -48 26 0 28 -16 54 -63 103 -56 57 -98 111
-101 129 -1 8 -8 21 -15 30 -7 9 -10 16 -7 16 4 0 1 6 -6 14 -7 8 -17 11 -22
8 -5 -3 -6 -1 -3 5 3 5 -2 16 -11 25 -9 8 -40 41 -69 74 -29 32 -68 77 -87 99
-40 45 -45 65 -17 65 32 0 44 26 38 81 -4 30 -2 47 3 44 6 -4 10 6 10 20 0 22
3 25 20 20 18 -6 20 -3 16 19 -3 14 0 26 5 26 6 0 17 16 25 35 13 33 11 75 -5
100 -4 6 -8 26 -9 45 -1 28 3 21 21 -34 l23 -68 17 52 c28 85 23 111 -23 146
-43 32 -48 45 -25 64 13 11 14 10 9 -5 -5 -13 -4 -16 4 -11 7 4 12 18 12 30 0
15 7 26 18 28 15 4 20 19 25 73 4 37 13 78 21 90 8 12 19 41 26 63 8 32 16 42
31 42 17 0 19 4 13 23 -4 12 -10 24 -14 27 -11 8 -8 44 4 53 8 5 7 10 -2 16
-8 4 -14 12 -14 17 0 5 -4 8 -9 7 -13 -4 -11 1 11 27 23 26 25 38 8 36 -7 0
-14 3 -15 9 -2 5 7 10 19 10 28 0 36 41 9 50 -23 7 -36 36 -21 45 14 9 2 40
-15 40 -7 0 -21 -3 -30 -6 -14 -6 -14 -8 2 -28 14 -16 15 -18 1 -8 -13 10 -17
10 -21 0 -4 -8 -6 -7 -6 4 -1 11 -6 15 -15 12 -8 -3 -17 -1 -21 5 -3 7 0 8 9
5 20 -8 20 3 1 22 -8 9 -15 24 -15 35 0 17 -6 19 -45 15 -25 -2 -42 1 -39 6 3
5 0 15 -6 23 -14 17 0 21 16 5 6 -6 21 -12 33 -15 17 -3 21 0 17 10 -7 18 5
20 22 3 6 -6 15 -8 19 -4 4 4 1 11 -6 15 -7 5 -11 13 -7 19 3 6 2 21 -3 34 -7
17 -10 18 -10 6 -1 -10 -5 -18 -11 -18 -14 0 -13 37 1 42 15 5 -80 53 -105 53
-10 0 -21 5 -23 12 -3 7 3 10 15 6 11 -2 22 -1 25 4 3 5 -4 10 -15 10 -12 1
-28 9 -37 18 -15 15 -14 17 3 31 23 16 14 19 -15 3 -14 -7 -18 -16 -14 -32 5
-16 4 -18 -3 -8 -6 8 -19 12 -31 8 -12 -3 -21 -1 -21 4 0 5 6 9 14 9 8 0 17 4
20 9 3 5 -2 8 -10 7 -9 0 -18 7 -20 17 -6 42 -14 49 -40 43 -21 -6 -25 -4 -21
8 7 19 -4 21 -21 4 -9 -9 -12 -9 -12 1 0 11 -3 11 -15 1 -11 -9 -15 -9 -15 -1
0 7 -5 9 -11 6 -6 -4 -8 -13 -5 -21 12 -30 -14 -12 -37 27 -14 22 -27 36 -31
31 -4 -7 -16 -7 -35 1 -16 6 -36 7 -47 2 -10 -4 -22 -8 -26 -7 -3 1 -9 -6 -12
-14 -5 -12 -1 -14 15 -9 14 5 25 2 30 -6 7 -11 9 -9 9 6 0 15 2 17 13 6 10
-10 7 -16 -13 -32 l-25 -20 48 4 c38 4 45 2 37 -8 -8 -9 -7 -15 2 -19 7 -3 2
-4 -11 -3 -14 1 -26 -4 -28 -13 -4 -13 -3 -13 7 0 10 13 11 12 6 -3 -3 -11 0
-20 9 -23 8 -4 15 -10 15 -15 0 -5 -18 3 -40 17 -22 15 -38 29 -36 33 2 3 -7
7 -20 8 -46 4 -52 6 -48 18 6 15 -19 36 -45 38 -23 1 -36 23 -20 33 6 3 22 3
37 0 24 -6 24 -5 -8 15 -19 12 -36 25 -38 30 -7 18 -30 8 -36 -14z m34 -62 c0
-18 -21 -24 -43 -13 -13 7 -19 4 -26 -13 -5 -16 -10 -19 -15 -10 -5 7 -1 18
10 26 11 8 15 15 9 16 -5 0 1 4 15 8 30 9 50 3 50 -14z m-135 -24 c-3 -2 2
-13 12 -23 15 -17 15 -18 -1 -18 -9 0 -15 4 -11 10 3 5 -7 16 -22 24 l-28 15
27 -1 c15 -1 25 -4 23 -7z m-47 -36 c0 -14 -4 -25 -8 -25 -11 0 -18 22 -12 38
7 21 20 13 20 -13z m522 5 c-6 -11 -19 -24 -30 -30 -24 -13 -53 -13 -45 0 3 5
12 7 20 3 8 -3 15 -1 15 5 0 14 -28 23 -35 11 -7 -11 -25 -2 -25 12 0 6 17 8
44 4 28 -5 46 -3 50 4 12 19 17 12 6 -9z m55 -8 c-3 -3 -11 0 -18 7 -9 10 -8
11 6 5 10 -3 15 -9 12 -12z m-271 -26 c-21 -15 -30 -14 -19 3 3 6 14 11 23 11
13 0 13 -2 -4 -14z m-330 -32 c3 -8 2 -12 -4 -9 -6 3 -10 10 -10 16 0 14 7 11
14 -7z m596 4 c0 -4 9 -8 19 -8 10 0 22 -7 25 -16 5 -14 4 -15 -8 -5 -12 10
-20 10 -38 0 -14 -8 -18 -14 -10 -17 6 -2 12 -8 12 -13 0 -5 -14 -2 -30 6 -17
9 -34 13 -39 11 -5 -3 -8 2 -7 11 1 21 -18 27 -35 11 -16 -16 -34 -17 -46 -4
-4 5 -3 6 3 3 7 -4 14 0 18 8 7 19 45 19 70 0 22 -17 40 -20 32 -6 -4 5 4 7
16 4 22 -5 22 -5 4 9 -16 13 -16 15 -2 15 9 0 16 -4 16 -9z m-930 -58 c27 0
36 -21 15 -36 -10 -8 -21 -11 -24 -8 -3 3 1 9 9 14 13 8 12 10 -2 10 -10 0
-18 2 -18 4 0 2 -2 10 -3 18 -2 7 -2 10 0 6 3 -5 13 -8 23 -8z m83 11 c4 0 7
-5 7 -10 0 -5 -12 -8 -27 -6 -16 2 -31 4 -35 4 -5 1 -8 5 -8 10 0 8 19 9 63 2z
m937 -1 c0 -5 -4 -10 -10 -10 -5 0 -10 5 -10 10 0 6 5 10 10 10 6 0 10 -4 10
-10z m49 -21 c-15 -9 -32 -2 -24 11 3 5 13 6 21 3 12 -4 13 -8 3 -14z m48 -3
c0 -8 -6 -12 -14 -9 -7 3 -13 9 -13 14 0 5 6 9 13 9 8 0 14 -6 14 -14z m-831
-5 c-6 -9 -46 -22 -46 -15 0 3 10 9 23 14 29 11 29 11 23 1z m874 -22 c0 -5
-7 -6 -15 -3 -8 4 -15 13 -15 21 0 13 3 13 15 3 8 -7 15 -16 15 -21z m-945 11
c-11 -5 -27 -9 -35 -9 -9 0 -8 4 5 9 11 5 27 9 35 9 9 0 8 -4 -5 -9z m820 -10
c3 -5 2 -10 -4 -10 -5 0 -13 5 -16 10 -3 6 -2 10 4 10 5 0 13 -4 16 -10z m50
-20 c3 -5 1 -10 -4 -10 -6 0 -11 5 -11 10 0 6 2 10 4 10 3 0 8 -4 11 -10z
m-1065 -10 c0 -5 -2 -10 -4 -10 -3 0 -8 5 -11 10 -3 6 -1 10 4 10 6 0 11 -4
11 -10z m70 -20 c0 -5 -7 -7 -15 -4 -8 4 -12 10 -9 15 6 11 24 2 24 -11z m784
5 c3 -8 1 -15 -4 -15 -6 0 -10 7 -10 15 0 8 2 15 4 15 2 0 6 -7 10 -15z m-957
-23 c-15 -15 -27 -33 -27 -40 0 -7 -4 -12 -10 -12 -16 0 -12 18 10 40 11 11
20 25 20 30 0 6 8 10 17 10 13 0 11 -6 -10 -28z m1013 8 c0 -5 -2 -10 -4 -10
-3 0 -8 5 -11 10 -3 6 -1 10 4 10 6 0 11 -4 11 -10z m40 6 c0 -3 -4 -8 -10
-11 -5 -3 -10 -1 -10 4 0 6 5 11 10 11 6 0 10 -2 10 -4z m180 -11 c0 -8 -4
-15 -9 -15 -13 0 -22 16 -14 24 11 11 23 6 23 -9z m60 11 c0 -3 -4 -8 -10 -11
-5 -3 -10 -1 -10 4 0 6 5 11 10 11 6 0 10 -2 10 -4z m-182 -15 c15 12 16 12 4
-2 -16 -21 -63 -23 -55 -2 4 10 9 11 19 2 11 -9 18 -8 32 2z m-58 -41 c0 -5
-4 -10 -10 -10 -5 0 -10 5 -10 10 0 6 5 10 10 10 6 0 10 -4 10 -10z m133 -48
c2 7 8 9 13 5 5 -4 2 -12 -6 -17 -21 -14 -24 -13 -39 13 -14 22 -13 22 7 4 15
-14 21 -15 25 -5z m47 -28 c0 -8 -19 -13 -24 -6 -3 5 1 9 9 9 8 0 15 -2 15 -3z
m40 -26 c0 -5 16 -30 36 -54 22 -26 31 -44 23 -44 -23 0 -37 14 -40 40 -2 14
-8 23 -13 20 -5 -3 -13 5 -17 18 -5 13 -13 21 -18 18 -5 -3 -7 3 -4 14 4 16 8
18 19 9 8 -6 14 -16 14 -21z m-250 11 c0 -15 -19 -49 -28 -49 -4 0 -12 11 -18
25 -12 25 -12 24 39 34 4 0 7 -4 7 -10z m140 -28 c0 -5 9 -12 19 -16 27 -8 34
-33 16 -58 -17 -24 -20 -15 -5 14 9 15 7 19 -5 19 -10 0 -13 5 -9 12 5 8 2 9
-9 5 -10 -3 -17 -5 -17 -3 0 3 -3 11 -6 20 -3 9 -1 16 5 16 6 0 11 -4 11 -9z
m-40 -21 c0 -5 -4 -10 -10 -10 -5 0 -10 5 -10 10 0 6 5 10 10 10 6 0 10 -4 10
-10z m251 0 c-2 -3 1 -15 8 -28 11 -21 11 -22 -7 -11 -10 7 -24 21 -31 31 -11
17 -10 19 11 16 13 -2 21 -5 19 -8z m49 -52 c0 -19 -16 -5 -17 14 -2 18 0 20
7 8 5 -8 10 -18 10 -22z m-255 2 c3 -5 -3 -10 -15 -10 -12 0 -18 5 -15 10 3 6
10 10 15 10 5 0 12 -4 15 -10z m165 -31 c0 -14 -17 -10 -23 5 -4 10 -1 13 9 9
7 -3 14 -9 14 -14z m-1436 -24 c-4 -8 -8 -15 -10 -15 -2 0 -4 7 -4 15 0 8 4
15 10 15 5 0 7 -7 4 -15z m327 -46 c21 -23 36 -45 34 -49 -6 -9 56 -40 67 -34
4 3 15 -10 24 -28 12 -25 13 -39 5 -61 -6 -15 -15 -27 -20 -27 -6 0 -9 -21 -8
-46 1 -35 7 -50 22 -58 28 -15 35 -27 35 -59 0 -18 -6 -30 -17 -33 -10 -3 -27
-10 -38 -14 -11 -5 -49 -12 -85 -15 -106 -10 -122 -20 -75 -45 23 -12 24 -15
8 -24 -16 -9 -16 -10 2 -16 18 -7 18 -9 -7 -20 -39 -18 -36 -40 5 -38 45 2 54
-6 59 -47 3 -26 0 -35 -10 -35 -18 0 -64 -48 -53 -54 10 -6 8 -37 -3 -54 -5
-9 0 -19 14 -29 16 -11 19 -18 11 -26 -17 -17 -13 -27 9 -27 13 0 20 -7 20
-20 0 -11 5 -20 10 -20 6 0 10 8 10 17 0 13 3 14 12 5 8 -8 8 -17 0 -34 -6
-13 -11 -17 -11 -10 -1 6 -8 12 -17 12 -13 0 -14 -3 -5 -14 9 -10 8 -15 -3
-19 -9 -4 -12 -14 -9 -26 6 -23 0 -26 -27 -11 -17 9 -17 7 -7 -20 9 -24 8 -36
-8 -67 -28 -55 -29 -56 -16 -49 6 4 11 3 11 -2 0 -13 -39 -22 -46 -11 -3 5 -6
23 -6 39 -1 32 -5 35 -28 20 -12 -7 -12 -12 -2 -22 15 -15 16 -45 0 -54 -8 -5
-9 -2 -5 10 4 10 2 27 -5 39 -7 12 -11 34 -9 50 1 15 -2 27 -8 27 -6 0 -11
-11 -11 -25 0 -25 -14 -33 -25 -15 -3 6 -11 10 -17 10 -7 0 -6 -5 1 -14 7 -8
10 -29 7 -46 -6 -43 -16 -50 -16 -12 0 17 -4 34 -10 37 -5 3 -10 1 -10 -4 0
-6 -7 -11 -16 -11 -8 0 -12 5 -9 10 4 6 -5 27 -20 46 -19 25 -24 39 -17 46 8
8 6 18 -6 36 -12 19 -13 27 -4 30 7 2 9 9 5 15 -13 20 -12 41 0 49 8 5 8 8 1
8 -11 0 -12 35 -1 46 4 4 7 16 7 26 0 10 5 18 10 18 6 0 10 32 10 77 0 69 18
161 41 205 5 9 12 36 15 60 9 59 30 97 73 135 20 18 32 33 27 33 -5 0 -3 7 4
15 7 9 14 52 16 103 3 103 24 162 56 162 12 0 37 -18 59 -41z m1049 -9 c0 -5
-5 -10 -11 -10 -5 0 -7 5 -4 10 3 6 8 10 11 10 2 0 4 -4 4 -10z m971 -63 c-1
-12 -15 -9 -19 4 -3 6 1 10 8 8 6 -3 11 -8 11 -12z m364 -82 c28 -12 40 -13
50 -5 8 7 24 9 36 5 28 -9 118 -16 187 -15 32 0 61 -5 75 -15 12 -8 35 -15 52
-15 39 0 55 -11 60 -43 6 -30 -14 -54 -53 -63 -15 -4 -33 -11 -40 -17 -9 -7
-21 -4 -40 12 -52 41 -73 47 -88 26 -8 -10 -14 -27 -14 -36 0 -10 -5 -30 -12
-46 -6 -15 -11 -31 -10 -35 3 -12 -96 -9 -103 2 -3 6 3 10 14 10 22 0 26 16
15 58 -5 19 -13 22 -51 22 -24 0 -42 -3 -40 -7 3 -5 -9 -8 -26 -8 -18 -1 -51
-4 -74 -9 -38 -7 -43 -5 -59 19 -10 15 -19 50 -21 78 -4 49 -2 53 29 74 40 26
64 28 113 8z m-2985 -44 c0 -33 114 -42 146 -13 15 15 26 17 44 10 14 -5 28
-14 32 -21 5 -8 8 -4 8 11 0 25 15 30 24 6 8 -20 -1 -34 -20 -34 -12 0 -15
-10 -13 -42 3 -44 35 -102 51 -92 5 3 15 1 22 -5 11 -9 11 -19 2 -51 -14 -49
-22 -57 -31 -31 -7 24 -69 39 -94 24 -29 -18 -25 -68 8 -102 17 -17 39 -31 51
-31 11 0 20 -1 20 -3 0 -1 -4 -18 -10 -36 -7 -24 -6 -39 1 -48 9 -10 5 -22
-17 -50 -15 -20 -23 -33 -17 -30 6 4 14 0 17 -9 4 -11 2 -15 -8 -11 -10 4 -13
1 -9 -9 3 -7 11 -14 19 -14 8 0 14 -4 14 -10 0 -5 -6 -10 -13 -10 -21 0 -116
-86 -218 -198 -28 -30 -74 -112 -63 -112 4 0 1 -7 -6 -15 -7 -8 -9 -15 -6 -15
4 0 -2 -13 -14 -30 -12 -16 -18 -30 -15 -30 3 0 -4 -14 -16 -31 -19 -27 -26
-30 -55 -26 -23 4 -34 2 -34 -6 0 -7 -4 -6 -10 3 -7 12 -10 12 -10 1 0 -8 -6
-11 -16 -7 -9 3 -24 -4 -37 -17 -19 -20 -28 -22 -67 -17 -25 4 -37 8 -28 8 10
1 25 13 34 26 8 14 32 35 52 46 l37 22 -40 36 c-21 19 -30 32 -19 28 10 -4 56
-10 102 -13 73 -5 84 -4 97 13 8 10 12 26 9 34 -3 8 -2 11 2 7 4 -4 24 19 45
51 20 33 60 80 88 107 33 31 51 56 51 71 0 17 5 23 18 21 9 -1 18 2 19 7 1 5
7 13 15 17 10 7 10 9 1 9 -8 0 -5 8 7 20 26 26 25 40 -2 87 -19 31 -23 55 -25
128 -1 78 -18 213 -22 178 0 -7 -4 -12 -8 -12 -44 7 -85 -4 -106 -28 -50 -59
-59 -66 -68 -52 -8 12 -10 12 -18 0 -10 -15 -17 12 -23 84 -3 25 -7 30 -30 30
-19 1 -31 -7 -43 -28 l-17 -29 -25 25 -25 25 22 43 c12 24 26 51 30 59 4 8 16
16 27 18 22 3 38 -33 27 -62 -11 -29 11 -16 29 17 12 22 15 42 11 64 -8 40 12
63 55 63 20 0 31 -6 34 -17 3 -13 5 -12 6 5 1 27 21 20 21 -7z m2760 -21 c0
-12 -7 -20 -17 -20 -10 0 -26 -14 -36 -31 -21 -37 -39 -34 -48 9 -6 30 -4 32
27 38 19 3 37 10 40 15 10 17 34 9 34 -11z m-1230 -10 c0 -5 -4 -10 -10 -10
-5 0 -10 5 -10 10 0 6 5 10 10 10 6 0 10 -4 10 -10z m-1857 -97 c-5 -97 -9
-105 -46 -101 -32 3 -32 3 -35 65 -3 58 -2 62 25 76 53 28 59 23 56 -40z
m1832 -32 c-3 -11 -2 -22 4 -25 5 -3 7 -15 4 -25 -3 -13 2 -21 16 -26 29 -9
34 -47 28 -236 -5 -183 -28 -284 -73 -327 -22 -21 -26 -22 -40 -8 -9 10 -12
21 -7 28 11 18 13 127 2 134 -22 14 1 124 27 124 10 0 13 17 10 77 -2 77 -3
78 -40 105 -35 25 -36 27 -17 38 12 6 21 17 21 25 0 7 5 26 12 42 14 35 15 39
17 62 0 11 9 22 19 24 9 3 18 5 20 6 2 0 1 -8 -3 -18z m1255 -79 c0 -31 -23
-58 -54 -64 -14 -2 -21 5 -28 27 -13 49 -7 54 70 64 7 0 12 -11 12 -27z m660
-8 c0 -8 -5 -12 -10 -9 -6 4 -8 11 -5 16 9 14 15 11 15 -7z m-1361 -26 c12
-20 13 -32 4 -50 -9 -21 -16 -24 -48 -20 l-37 4 6 41 c4 22 9 44 12 49 11 17
48 3 63 -24z m1391 12 c0 -5 -2 -10 -4 -10 -3 0 -8 5 -11 10 -3 6 -1 10 4 10
6 0 11 -4 11 -10z m-3378 -67 c-5 -25 -32 -32 -32 -8 0 8 -7 15 -15 15 -12 0
-13 4 -5 19 15 28 58 7 52 -26z m169 24 c-10 -9 -11 -8 -5 6 3 10 9 15 12 12
3 -3 0 -11 -7 -18z m3199 3 c0 -11 -4 -20 -10 -20 -5 0 -10 9 -10 20 0 11 5
20 10 20 6 0 10 -9 10 -20z m-3173 -47 c1 -47 1 -47 -8 -13 -7 31 -6 60 4 60
1 0 3 -21 4 -47z m1378 37 c3 -5 1 -10 -4 -10 -6 0 -11 5 -11 10 0 6 2 10 4
10 3 0 8 -4 11 -10z m1466 -5 c-1 -15 -24 -12 -29 3 -3 9 2 13 12 10 10 -1 17
-7 17 -13z m-245 -11 c13 -11 15 -17 6 -20 -6 -3 -9 -10 -6 -16 4 -6 -4 -8
-17 -6 -18 2 -25 10 -27 31 -4 31 13 36 44 11z m-120 -74 c33 -31 40 -44 36
-65 -3 -17 1 -30 13 -39 14 -10 15 -16 6 -34 -10 -19 -18 -21 -63 -17 -28 2
-55 8 -61 14 -16 16 -16 144 1 164 8 9 18 17 21 17 3 0 25 -18 47 -40z m-2860
-18 c-22 -5 -30 3 -21 18 5 8 11 7 22 -2 15 -12 14 -13 -1 -16z m124 12 c0 -8
-4 -12 -10 -9 -5 3 -10 10 -10 16 0 5 5 9 10 9 6 0 10 -7 10 -16z m-376 -14
c30 -11 33 -34 11 -76 -8 -16 -15 -23 -15 -16 0 6 -6 12 -14 12 -19 0 -29 31
-20 64 7 30 5 29 38 16z m406 -4 c0 -8 -7 -16 -15 -20 -17 -6 -18 -4 -9 18 8
20 24 21 24 2z m2452 -11 c23 -51 -45 -103 -70 -52 l-11 22 0 -25 c-1 -14 -10
-40 -21 -58 -22 -35 -40 -36 -85 -6 -11 8 -30 14 -42 14 -14 0 -23 6 -23 15 0
8 8 15 19 15 10 0 34 17 52 39 35 39 63 46 92 23 11 -10 16 -7 25 13 15 33 49
33 64 0z m-1522 -75 c0 -17 -27 -126 -37 -150 -3 -8 -8 -24 -10 -35 -15 -81
-36 -104 -94 -103 -19 0 -44 -3 -56 -7 -20 -6 -23 -4 -23 18 0 15 7 42 16 61
16 32 16 37 -1 72 -17 35 -17 38 0 50 11 8 15 20 11 32 -5 15 -1 21 19 26 14
4 30 4 35 1 5 -3 20 0 32 7 13 7 26 11 31 10 4 -1 6 1 5 6 -1 4 9 19 22 34 23
25 26 26 38 11 6 -9 12 -24 12 -33z m-688 12 c12 -23 12 -33 1 -60 -15 -38
-27 -44 -13 -6 14 37 13 49 -5 34 -8 -7 -12 -17 -8 -24 4 -6 -1 -5 -11 3 -12
10 -13 16 -6 21 7 4 11 9 11 11 -1 7 11 49 14 49 2 0 10 -12 17 -28z m3041 8
c6 -23 -10 -37 -24 -23 -10 10 -2 43 11 43 4 0 10 -9 13 -20z m-1423 -10 c0
-5 -9 -10 -20 -10 -11 0 -20 5 -20 10 0 6 9 10 20 10 11 0 20 -4 20 -10z
m-2279 -37 c1 -10 0 -30 -1 -45 -1 -18 6 -31 19 -40 29 -18 27 -52 -5 -68 -30
-17 -43 -4 -45 45 -1 17 -3 46 -5 65 -1 19 -1 41 1 48 7 18 35 14 36 -5z m219
0 c0 -13 3 -14 12 -5 18 18 28 15 28 -8 0 -11 7 -23 15 -26 9 -4 15 -19 15
-35 0 -29 14 -61 38 -87 25 -27 8 -112 -23 -112 -7 0 -15 -5 -17 -11 -2 -6
-14 -8 -31 -4 -24 6 -27 12 -27 51 0 30 -5 46 -15 50 -8 3 -17 26 -20 52 -9
69 -14 80 -25 62 -8 -13 -10 -12 -10 3 0 13 5 17 19 12 15 -5 18 -1 14 20 -6
29 2 55 17 55 5 0 10 -8 10 -17z m320 -16 c0 -7 -4 -6 -10 3 -8 13 -10 12 -10
-2 0 -13 -8 -18 -30 -18 -26 0 -30 -4 -30 -27 0 -48 -13 -57 -49 -38 -22 11
-31 21 -27 31 3 9 6 20 6 25 0 5 9 9 21 9 12 0 35 6 52 14 60 27 77 27 77 3z
m3046 -24 c-14 -14 -23 4 -13 27 l10 25 5 -23 c2 -13 1 -26 -2 -29z m-2147
-105 c1 -10 6 -18 12 -18 6 0 9 -6 6 -14 -3 -7 0 -19 6 -25 6 -6 8 -11 3 -11
-4 0 2 -12 13 -26 12 -15 20 -38 20 -53 -1 -14 -3 -19 -5 -11 -3 8 -19 24 -37
36 -45 30 -67 99 -53 169 3 11 5 27 6 35 2 17 28 -56 29 -82z m1403 44 c-2
-14 4 -29 15 -37 17 -13 17 -14 -2 -29 -20 -15 -20 -15 5 -16 22 -1 23 -2 7
-11 -26 -15 -37 -2 -37 45 0 36 -4 45 -21 49 -27 7 -14 29 14 25 17 -2 21 -9
19 -26z m1027 -9 c10 -21 9 -28 -1 -34 -17 -11 -26 -11 -49 1 -22 12 -25 30
-7 48 20 20 44 14 57 -15z m-514 -11 c7 -15 16 -21 28 -18 9 2 24 -3 33 -11
13 -14 13 -17 -2 -34 -20 -23 -54 -25 -54 -4 0 8 -8 15 -17 15 -35 0 -68 52
-46 74 14 14 48 1 58 -22z m645 -158 c0 -12 -11 -26 -26 -35 -23 -12 -27 -12
-40 6 -19 26 -18 41 6 65 19 19 21 19 40 3 11 -10 20 -27 20 -39z m-1898 31
c22 -29 2 -32 -32 -5 l-25 20 25 -3 c14 -1 28 -6 32 -12z m495 -1 c3 -9 0 -26
-7 -38 -8 -11 -20 -34 -28 -49 -11 -22 -20 -27 -41 -25 -21 2 -27 9 -29 35 -3
29 1 34 40 52 24 11 36 21 28 21 -13 0 -13 1 0 10 21 14 30 12 37 -6z m767
-30 c9 -3 16 -12 16 -20 0 -7 7 -17 15 -21 8 -5 18 -30 21 -55 6 -45 5 -48
-27 -67 -42 -26 -61 -26 -83 -2 -30 33 -2 171 33 171 5 0 16 -3 25 -6z m-3351
-31 c-7 -2 -19 -2 -25 0 -7 3 -2 5 12 5 14 0 19 -2 13 -5z m227 -18 c0 -20 -5
-25 -25 -25 -30 0 -33 20 -5 27 11 3 17 9 14 14 -3 5 0 9 5 9 6 0 11 -11 11
-25z m455 7 c-3 -3 -11 0 -18 7 -9 10 -8 11 6 5 10 -3 15 -9 12 -12z m215 -83
c-7 -11 -9 -27 -6 -34 7 -20 -5 -26 -20 -10 -16 16 -19 29 -4 20 6 -3 10 -1
10 4 0 6 -5 11 -11 11 -8 0 -8 5 1 15 7 8 19 15 27 15 11 0 11 -4 3 -21z
m1483 -2 c14 -22 13 -26 -5 -56 l-20 -31 -19 21 c-23 27 -24 52 -3 73 21 21
29 20 47 -7z m477 8 c0 -8 -4 -15 -10 -15 -5 0 -7 7 -4 15 4 8 8 15 10 15 2 0
4 -7 4 -15z m-146 -1 c9 -3 16 -17 16 -30 0 -19 -5 -24 -24 -24 -28 0 -51 24
-42 45 6 16 24 19 50 9z m196 2 c0 -2 -7 -9 -15 -16 -12 -10 -15 -10 -15 4 0
9 7 16 15 16 8 0 15 -2 15 -4z m40 -66 c0 -5 -2 -10 -4 -10 -3 0 -8 5 -11 10
-3 6 -1 10 4 10 6 0 11 -4 11 -10z m-1825 -16 c14 -9 25 -21 25 -26 0 -6 -7
-5 -15 2 -9 7 -19 10 -22 6 -4 -4 -1 -12 7 -17 11 -8 12 -12 2 -16 -6 -2 -10
-9 -6 -14 3 -5 -2 -9 -10 -9 -9 0 -16 -6 -16 -13 0 -8 -12 -20 -27 -28 -16 -8
-30 -17 -33 -20 -3 -3 -15 -11 -28 -18 -12 -7 -20 -17 -16 -22 3 -6 -3 -5 -15
3 -12 7 -21 16 -21 21 0 4 -4 5 -10 2 -5 -3 -10 -2 -10 3 0 6 7 12 15 16 9 3
15 0 15 -9 0 -17 18 -19 39 -6 18 11 6 61 -14 61 -8 0 -15 7 -15 16 0 9 5 14
12 12 13 -5 58 34 58 51 0 14 15 14 42 0 18 -10 20 -9 15 5 -8 20 -3 20 28 0z
m1176 -13 c0 -3 1 -21 2 -39 2 -29 -1 -33 -20 -29 -12 2 -20 0 -17 -4 3 -5 -2
-6 -10 -3 -9 3 -15 9 -14 12 1 4 -2 15 -7 25 -10 24 20 57 46 50 10 -3 19 -8
20 -12z m-2081 -55 c0 -7 -12 -21 -26 -31 -27 -18 -26 -7 4 28 18 21 22 21 22
3z m3104 -37 c9 -27 2 -83 -13 -108 -18 -29 -101 31 -101 73 0 60 95 89 114
35z m-765 -48 c-13 -45 -23 -44 -34 6 -5 24 -2 34 12 42 28 15 36 -2 22 -48z
m-262 43 c-3 -3 -12 -4 -19 -1 -8 3 -5 6 6 6 11 1 17 -2 13 -5z m1205 -44 c-1
-14 -10 -31 -19 -37 -13 -10 -19 -9 -29 5 -7 9 -14 27 -14 40 0 20 4 23 33 20
28 -3 32 -6 29 -28z m-2442 -11 c0 -5 -4 -9 -10 -9 -5 0 -10 7 -10 16 0 8 5
12 10 9 6 -3 10 -10 10 -16z m-75 -49 c3 -6 -1 -7 -9 -4 -18 7 -21 14 -7 14 6
0 13 -4 16 -10z m1889 -6 c24 -62 -30 -125 -66 -78 -25 31 -22 49 10 73 33 25
48 26 56 5z m-2928 -49 c-11 -8 -27 -15 -35 -15 -11 0 -10 4 5 15 10 8 26 14
34 14 11 0 10 -3 -4 -14z m2734 -98 c0 -6 -9 -2 -20 8 -11 10 -20 23 -20 28 0
6 9 2 20 -8 11 -10 20 -23 20 -28z m-147 -64 c-7 -2 -19 -2 -25 0 -7 3 -2 5
12 5 14 0 19 -2 13 -5z m265 -465 c16 -16 15 -28 -3 -28 -8 0 -15 2 -15 4 0 2
-3 11 -6 20 -7 19 7 21 24 4z m117 -1498 c18 -8 17 -9 -7 -9 -16 -1 -28 4 -28
9 0 12 8 12 35 0z m-3882 -1552 c-5 -25 -7 -26 -21 -11 -14 14 -14 17 3 29 23
17 25 16 18 -18z"/>
<path d="M1905 4331 c-3 -5 -1 -12 5 -16 5 -3 10 1 10 9 0 18 -6 21 -15 7z"/>
<path d="M1851 4284 c0 -11 3 -14 6 -6 3 7 2 16 -1 19 -3 4 -6 -2 -5 -13z"/>
<path d="M1930 4280 c0 -11 4 -20 9 -20 5 0 7 9 4 20 -3 11 -7 20 -9 20 -2 0
-4 -9 -4 -20z"/>
<path d="M1681 4988 c-14 -47 -18 -175 -4 -138 4 8 17 32 30 52 22 36 26 79 9
106 -12 20 -24 13 -35 -20z"/>
<path d="M1430 4970 c0 -5 5 -10 11 -10 5 0 7 5 4 10 -3 6 -8 10 -11 10 -2 0
-4 -4 -4 -10z"/>
<path d="M1713 4494 c-7 -7 -9 -15 -4 -18 5 -3 14 1 20 8 15 18 0 28 -16 10z"/>
<path d="M4231 5014 c0 -11 3 -14 6 -6 3 7 2 16 -1 19 -3 4 -6 -2 -5 -13z"/>
<path d="M3000 4305 c-8 -9 -8 -15 -2 -15 12 0 26 19 19 26 -2 2 -10 -2 -17
-11z"/>
<path d="M2430 5939 c0 -5 5 -7 10 -4 6 3 10 8 10 11 0 2 -4 4 -10 4 -5 0 -10
-5 -10 -11z"/>
<path d="M2263 5907 c0 -12 1 -17 4 -10 2 7 11 9 19 6 20 -8 17 4 -4 16 -15 8
-18 5 -19 -12z"/>
<path d="M2805 5900 c3 -5 8 -10 11 -10 2 0 4 5 4 10 0 6 -5 10 -11 10 -5 0
-7 -4 -4 -10z"/>
<path d="M3260 5509 c0 -5 5 -7 10 -4 6 3 10 8 10 11 0 2 -4 4 -10 4 -5 0 -10
-5 -10 -11z"/>
<path d="M5976 5381 c2 -35 -9 -41 -95 -48 -95 -7 -115 -5 -129 16 -13 19 -14
19 -43 -10 -34 -34 -60 -37 -101 -8 -21 15 -26 25 -19 32 32 32 -14 51 -53 22
-26 -20 -29 -153 -4 -178 15 -16 18 -15 38 13 12 16 28 30 35 30 21 0 46 -43
52 -89 5 -35 1 -45 -26 -76 -17 -20 -31 -31 -31 -25 0 6 -5 8 -11 5 -6 -4 -19
2 -30 14 -11 12 -24 21 -29 21 -12 0 -17 -135 -6 -209 5 -43 11 -60 18 -53 11
11 39 5 50 -12 16 -23 7 -48 -27 -80 -26 -25 -35 -42 -35 -67 0 -18 -7 -62
-16 -97 -12 -49 -14 -70 -5 -89 13 -29 14 -93 1 -148 -7 -30 -6 -43 6 -56 7
-8 14 -23 14 -32 0 -9 5 -17 10 -17 6 0 10 10 10 22 0 26 5 21 13 -13 6 -23 4
-26 -17 -22 -22 5 -24 1 -31 -59 -8 -65 -28 -118 -45 -118 -6 0 -19 -9 -30
-20 -18 -18 -19 -23 -7 -40 10 -14 12 -33 7 -64 -9 -61 1 -81 48 -93 39 -10
41 -9 52 17 8 19 21 30 42 34 45 9 48 8 48 -14 0 -12 7 -20 18 -21 9 0 12 -3
5 -5 -7 -3 -9 -12 -6 -20 3 -7 -2 -17 -11 -20 -21 -8 -20 -24 2 -24 37 -1 55
-28 58 -82 1 -29 9 -66 18 -83 22 -41 20 -60 -8 -90 -21 -23 -28 -25 -46 -15
-19 10 -22 18 -17 52 3 23 2 48 -3 57 -24 47 -41 100 -39 117 2 10 -1 19 -6
19 -6 0 -9 -6 -9 -12 1 -7 -14 -23 -34 -35 -20 -12 -30 -24 -24 -26 7 -2 12
-12 12 -21 0 -10 9 -26 21 -37 18 -16 18 -19 4 -24 -14 -5 -14 -8 4 -29 12
-13 21 -30 21 -38 0 -7 5 -13 10 -13 6 0 10 -4 10 -10 0 -5 -7 -10 -15 -10 -8
0 -15 -5 -15 -11 0 -6 9 -9 20 -6 10 3 24 -1 30 -8 14 -17 20 -75 9 -103 -8
-19 -6 -23 8 -20 10 2 24 21 32 43 8 22 19 43 24 46 5 3 2 9 -7 12 -11 4 -16
1 -16 -10 0 -9 -2 -14 -5 -11 -4 3 -3 18 1 32 5 21 10 25 28 20 33 -10 41 -21
26 -39 -7 -8 -8 -15 -3 -15 6 0 16 -24 22 -52 12 -58 14 -62 28 -98 7 -16 7
-35 1 -52 -8 -23 -16 -28 -41 -28 -95 0 -197 -13 -197 -25 0 -26 178 -36 199
-11 10 12 18 13 39 5 19 -8 62 -7 142 1 143 15 146 16 127 35 -12 12 -29 13
-98 5 -81 -9 -85 -9 -101 13 -10 12 -18 25 -18 28 0 13 42 59 50 54 5 -3 41 0
81 7 54 9 73 17 77 30 2 10 9 18 14 18 5 0 6 -9 3 -20 -3 -11 -2 -20 3 -20 4
0 26 -16 48 -35 21 -19 42 -35 47 -35 4 0 7 -12 7 -26 0 -25 2 -26 36 -21 56
9 68 24 43 55 l-20 26 23 17 c12 10 42 20 67 24 24 4 55 11 68 16 l23 9 0 292
0 293 -83 -1 c-45 0 -92 -3 -103 -7 -17 -6 -27 -1 -43 19 -12 15 -21 22 -21
15 0 -18 -27 -13 -33 7 -2 9 -8 25 -12 35 -5 12 -3 17 8 17 19 0 26 20 16 46
-6 17 -13 20 -33 17 -14 -3 -26 -9 -26 -14 0 -4 -10 -17 -21 -28 -42 -39 -80
16 -47 68 10 17 8 23 -11 39 -20 16 -23 24 -17 55 4 20 11 37 15 37 5 0 15 25
24 56 l16 57 -24 19 c-29 22 -34 72 -11 103 12 16 19 18 43 10 24 -9 28 -16
31 -53 3 -38 15 -55 24 -34 7 16 102 72 122 72 25 -1 113 -23 120 -31 3 -3 19
-4 36 -1 l30 4 0 224 c0 126 -4 225 -9 229 -6 3 -6 18 0 38 15 53 11 154 -6
161 -8 3 -15 17 -15 31 0 16 6 25 15 25 12 0 15 18 15 106 0 91 -2 105 -14 95
-10 -8 -16 -9 -21 -1 -3 5 -14 10 -23 10 -9 0 -30 7 -46 15 -27 14 -41 13 -41
-4 0 -16 -42 -58 -64 -64 -17 -4 -32 1 -53 18 -24 20 -32 23 -53 13 -32 -14
-48 -6 -68 34 -9 18 -17 27 -17 19 0 -11 -3 -10 -13 3 -12 16 -13 15 -11 -13z
m-426 -36 c0 -8 0 -18 1 -22 0 -4 -4 -9 -10 -11 -6 -2 -11 8 -11 22 0 14 5 26
10 26 6 0 10 -7 10 -15z m385 -55 c3 -5 1 -10 -5 -10 -7 0 -8 -6 0 -19 13 -25
13 -34 0 -26 -5 3 -10 1 -10 -4 0 -6 -11 -11 -25 -11 -30 0 -31 13 -4 51 21
30 34 36 44 19z m227 -23 c10 -16 10 -39 -1 -56 -6 -10 -2 -23 11 -42 25 -33
18 -92 -11 -111 -11 -6 -17 -17 -14 -25 3 -7 9 -10 14 -7 5 3 9 1 9 -4 0 -12
-40 -48 -40 -36 0 5 -5 1 -11 -8 -5 -10 -17 -18 -24 -18 -8 0 -15 -9 -15 -20
0 -10 -8 -24 -19 -29 -14 -8 -23 -6 -37 10 -16 17 -16 24 -6 52 11 28 10 34
-5 45 -9 6 -25 12 -34 12 -20 0 -19 29 2 74 11 23 11 30 1 34 -6 2 -12 12 -12
22 0 10 -4 22 -10 25 -14 8 12 46 27 40 7 -2 13 1 13 7 0 9 3 9 11 1 14 -14
49 -5 49 13 0 37 81 53 102 21z m-362 -17 c6 -11 10 -26 9 -33 -4 -35 2 -57
17 -57 11 0 15 6 11 19 -4 17 -2 18 14 8 27 -17 34 -40 10 -32 -13 4 -31 -4
-55 -25 -66 -58 -109 -11 -81 86 13 46 19 54 40 54 14 0 29 -8 35 -20z m145
-195 c0 -10 -5 -20 -11 -22 -13 -4 -27 24 -18 38 9 15 29 4 29 -16z m372 -3
c11 -7 16 -25 14 -51 -1 -15 -51 -7 -62 11 -19 30 16 60 48 40z m-722 -53 c8
-23 1 -34 -14 -24 -13 8 -15 45 -2 45 5 0 13 -9 16 -21z m710 -86 c-6 -26 -27
-30 -45 -9 -9 12 -7 21 11 46 23 31 23 31 32 8 4 -12 5 -33 2 -45z m-645 -123
c0 -5 -4 -10 -9 -10 -6 0 -13 5 -16 10 -3 6 1 10 9 10 9 0 16 -4 16 -10z m550
-10 c0 -5 -5 -10 -11 -10 -5 0 -7 5 -4 10 3 6 8 10 11 10 2 0 4 -4 4 -10z
m175 -20 c3 -5 1 -10 -4 -10 -6 0 -11 5 -11 10 0 6 2 10 4 10 3 0 8 -4 11 -10z
m-475 -30 c0 -5 8 -7 18 -4 12 4 10 0 -7 -15 -13 -12 -27 -21 -32 -21 -13 0
-21 20 -15 35 6 17 36 21 36 5z m140 -30 c0 -5 -4 -10 -10 -10 -5 0 -10 5 -10
10 0 6 5 10 10 10 6 0 10 -4 10 -10z m-96 -78 c9 -15 -20 -40 -88 -78 -29 -16
-30 -16 -57 17 -34 41 -24 57 31 54 22 -1 43 1 45 5 6 9 63 11 69 2z m247 -12
c32 -18 24 -56 -18 -85 -61 -41 -107 -29 -96 27 7 38 35 60 86 67 5 0 17 -4
28 -9z m153 -75 c10 -52 -9 -72 -40 -41 -25 25 -14 76 16 76 12 0 20 -11 24
-35z m-484 -193 c34 -27 21 -69 -27 -88 -47 -20 -81 -11 -89 23 -8 31 4 53 37
70 33 17 53 16 79 -5z m-272 -117 c-3 -3 -9 2 -12 12 -6 14 -5 15 5 6 7 -7 10
-15 7 -18z m299 -61 c11 -29 -14 -64 -45 -64 -23 0 -35 -9 -56 -39 -25 -36
-53 -57 -63 -48 -2 2 -5 38 -7 80 -3 85 7 97 43 51 17 -22 23 -24 34 -12 7 7
16 21 20 31 8 22 65 24 74 1z m17 -152 c2 -4 -1 -17 -7 -28 -10 -17 -17 -20
-34 -13 -27 10 -29 24 -5 38 21 12 39 14 46 3z m154 -31 c3 -19 6 -21 13 -10
6 9 9 10 9 2 0 -7 -10 -17 -21 -24 -18 -9 -25 -8 -41 8 -24 24 -14 55 16 51
13 -2 22 -12 24 -27z m-135 -218 c1 -22 9 -48 16 -57 18 -22 8 -42 -24 -50
-35 -9 -42 -2 -28 34 9 23 8 30 -3 34 -19 7 -18 56 3 78 21 24 32 12 36 -39z
m337 -137 c0 -13 -7 -27 -16 -30 -8 -3 -13 -2 -9 3 3 5 -1 11 -7 14 -10 3 -10
7 1 20 19 24 31 21 31 -7z m-653 -88 c-3 -8 -6 -5 -6 6 -1 11 2 17 5 13 3 -3
4 -12 1 -19z m609 -39 c8 -14 -11 -33 -25 -25 -11 7 -4 36 9 36 5 0 12 -5 16
-11z m56 -4 c0 -5 -5 -11 -11 -13 -6 -2 -11 4 -11 13 0 9 5 15 11 13 6 -2 11
-8 11 -13z m-117 -5 c3 -5 1 -10 -4 -10 -6 0 -11 5 -11 10 0 6 2 10 4 10 3 0
8 -4 11 -10z m-64 -91 c-12 -13 -21 -26 -21 -30 0 -4 -11 -2 -25 4 -14 7 -25
15 -25 20 0 4 -1 10 -2 15 -3 6 81 21 91 15 1 -1 -6 -12 -18 -24z"/>
<path d="M6070 5010 c0 -5 5 -10 10 -10 6 0 10 5 10 10 0 6 -4 10 -10 10 -5 0
-10 -4 -10 -10z"/>
<path d="M6037 3986 c-4 -10 -5 -21 -2 -24 9 -9 17 6 13 25 -3 17 -4 17 -11
-1z"/>
<path d="M3873 5327 c-4 -7 -22 -19 -40 -26 -26 -11 -37 -10 -65 3 -58 27
-101 17 -175 -42 -23 -18 -44 -29 -47 -24 -3 5 -21 9 -41 10 -31 1 -36 -2 -41
-26 -3 -16 -14 -34 -25 -40 -15 -10 -20 -8 -29 8 -15 28 -30 25 -30 -6 0 -26
0 -26 60 -19 50 6 61 4 66 -9 9 -24 44 -19 69 8 22 24 37 25 85 9 8 -3 31 -6
50 -8 19 -1 43 -6 53 -10 10 -4 17 -3 17 3 0 36 70 102 107 102 7 0 28 10 46
22 33 21 33 22 15 40 -21 21 -63 24 -75 5z"/>
<path d="M3356 5157 c3 -10 9 -15 12 -12 3 3 0 11 -7 18 -10 9 -11 8 -5 -6z"/>
<path d="M540 5122 c0 -4 -11 -14 -25 -22 l-25 -16 26 -27 c20 -22 23 -31 14
-47 -6 -11 -13 -38 -16 -61 -5 -37 -3 -44 25 -70 35 -31 41 -76 16 -119 -26
-45 -19 -78 19 -101 37 -22 39 -49 4 -49 -25 0 -19 -22 10 -35 32 -14 35 -35
11 -68 -12 -17 -24 -49 -27 -73 -4 -42 -3 -45 49 -94 30 -27 57 -50 62 -50 4
0 7 11 7 25 0 50 82 62 88 13 2 -16 7 -28 10 -28 4 0 14 -20 21 -45 10 -34 17
-43 25 -36 15 13 21 107 7 115 -5 4 -7 30 -4 60 3 30 3 66 -1 80 -6 24 -9 25
-29 15 -12 -7 -27 -18 -34 -25 -13 -13 -36 -13 -85 1 l-28 7 38 47 c54 67 60
73 79 69 19 -3 23 2 23 28 0 12 -9 14 -44 11 -43 -5 -45 -4 -52 25 -9 46 27
59 88 33 13 -5 20 0 28 20 15 38 13 75 -4 75 -29 0 -55 54 -59 123 -2 37 -6
70 -10 73 -4 4 -7 33 -7 65 0 32 -4 60 -9 63 -5 3 -33 8 -62 11 -30 3 -71 7
-91 10 -21 2 -38 1 -38 -3z m116 -132 c21 0 17 -38 -6 -50 -28 -15 -40 -5 -40
32 0 23 4 29 16 24 9 -3 22 -6 30 -6z m44 -395 c0 -8 -4 -15 -9 -15 -5 0 -11
-10 -13 -22 -2 -15 -11 -24 -26 -26 -20 -3 -23 0 -20 24 4 38 68 74 68 39z"/>
<path d="M43 5097 l-43 -10 0 -347 c0 -313 2 -348 16 -354 24 -9 24 -6 7 47
-14 43 -14 49 1 72 12 19 25 25 51 25 19 0 50 9 70 20 35 20 74 16 90 -9 9
-15 21 -14 40 6 13 12 15 26 10 58 -4 33 -2 44 10 48 8 4 15 13 15 22 0 8 3
14 8 13 11 -2 46 14 54 26 14 20 9 76 -7 82 -8 4 -15 16 -15 29 0 12 -7 28
-15 35 -8 7 -15 21 -15 32 0 17 5 19 30 13 23 -5 30 -3 30 9 0 8 -9 18 -20 21
-11 3 -20 9 -20 13 2 25 89 124 102 116 10 -6 38 13 38 26 0 4 -14 10 -30 14
-23 4 -44 -2 -80 -22 l-50 -27 -37 21 c-30 16 -44 19 -65 12 -19 -7 -35 -5
-57 6 -33 18 -56 18 -118 3z m87 -52 c0 -8 -8 -15 -17 -14 -11 0 -13 3 -5 6 6
2 10 9 6 14 -3 5 0 9 5 9 6 0 11 -7 11 -15z m-49 -105 c12 0 19 -7 19 -19 0
-31 -15 -33 -44 -6 -29 27 -34 40 -10 31 9 -3 24 -6 35 -6z m102 -186 c7 -7
-13 -54 -24 -54 -14 0 -20 20 -14 40 6 19 25 26 38 14z m-103 -54 c0 -25 -4
-30 -25 -30 -18 0 -25 5 -25 20 0 11 5 20 11 20 5 0 7 5 4 10 -3 6 3 10 14 10
17 0 21 -6 21 -30z"/>
<path d="M3440 5015 c-7 -9 -11 -18 -8 -20 3 -3 11 1 18 10 7 9 11 18 8 20 -3
3 -11 -1 -18 -10z"/>
<path d="M3291 4894 c0 -11 3 -14 6 -6 3 7 2 16 -1 19 -3 4 -6 -2 -5 -13z"/>
<path d="M3351 4844 c-2 -20 -45 -33 -64 -19 -10 7 -26 11 -37 8 -18 -5 -18
-5 0 -23 12 -12 17 -27 13 -42 -3 -16 -2 -19 5 -10 5 8 28 16 52 19 35 5 39 8
24 16 -17 9 -17 10 0 23 10 7 16 19 13 26 -3 7 -6 8 -6 2z"/>
<path d="M3261 4644 c0 -11 3 -14 6 -6 3 7 2 16 -1 19 -3 4 -6 -2 -5 -13z"/>
<path d="M3242 4604 c-17 -32 -12 -62 10 -56 26 6 28 13 14 47 -12 29 -13 29
-24 9z"/>
<path d="M276 4435 c0 -31 6 -61 12 -67 9 -9 12 -9 12 0 0 7 6 12 14 12 17 0
26 22 26 61 0 27 -8 34 -37 30 -7 -1 -13 3 -13 9 0 5 -3 10 -7 10 -5 0 -8 -25
-7 -55z"/>
<path d="M100 4371 c0 -6 5 -13 10 -16 6 -3 10 1 10 9 0 9 -4 16 -10 16 -5 0
-10 -4 -10 -9z"/>
<path d="M1 4083 c-1 -244 1 -293 13 -293 15 0 30 -45 21 -60 -4 -6 -13 -10
-21 -10 -12 0 -14 -43 -14 -279 0 -214 3 -281 13 -285 10 -5 10 -7 0 -12 -8
-3 -13 -24 -13 -49 0 -36 4 -44 23 -49 33 -9 49 -7 42 4 -3 6 4 10 18 10 13 0
27 3 31 8 10 9 55 13 143 12 63 -1 73 1 87 22 9 12 16 33 16 46 0 13 9 44 21
69 11 25 23 62 26 82 3 20 10 42 16 49 5 6 7 13 3 13 -23 5 -34 4 -55 -3 -16
-6 -31 -4 -45 5 -20 14 -46 15 -76 5 -51 -18 -98 -27 -119 -21 -17 4 -28 -1
-44 -21 -16 -19 -28 -24 -44 -20 -30 8 -31 58 -2 119 26 55 35 62 59 40 17
-15 19 -14 38 12 10 15 22 39 26 53 3 14 3 19 0 12 -5 -10 -10 -9 -25 4 -10 9
-19 23 -19 30 0 7 -5 14 -12 16 -7 3 -9 12 -5 22 6 15 10 16 22 6 8 -6 18 -9
24 -6 5 4 26 -3 46 -15 31 -18 38 -20 53 -8 45 37 63 41 84 23 16 -15 21 -16
28 -5 4 8 15 11 24 8 9 -4 16 -2 16 3 0 5 13 16 30 25 36 19 41 60 10 95 -11
13 -20 34 -20 47 0 13 -4 32 -10 42 -7 14 -4 21 15 31 26 14 34 60 16 89 -5 8
-3 27 5 47 14 33 13 35 -20 72 -19 21 -38 50 -41 65 -4 15 -11 27 -16 27 -5 0
-9 7 -9 16 0 11 -6 14 -20 9 -17 -5 -20 -2 -20 23 0 37 -16 45 -97 47 -34 1
-69 8 -77 14 -9 7 -33 15 -53 18 -42 5 -80 35 -86 67 -2 11 -5 -111 -6 -271z
m159 43 c0 -8 -5 -18 -10 -21 -13 -8 -42 14 -34 26 9 15 44 10 44 -5z m94 -6
c35 -13 37 -66 4 -79 -42 -16 -87 46 -56 77 15 15 19 15 52 2z m-85 -91 c18
-41 5 -83 -27 -87 -48 -7 -69 49 -36 96 21 31 47 27 63 -9z m200 -96 c18 -50
8 -68 -33 -57 -40 10 -51 38 -29 74 23 40 43 35 62 -17z m-146 -159 c-4 -10
-9 -12 -15 -6 -12 12 -1 35 12 27 5 -3 6 -13 3 -21z"/>
<path d="M3150 4315 c7 -9 15 -13 17 -11 7 7 -7 26 -19 26 -6 0 -6 -6 2 -15z"/>
<path d="M3125 4279 c-11 -17 1 -21 15 -4 8 9 8 15 2 15 -6 0 -14 -5 -17 -11z"/>
<path d="M574 4209 c3 -17 6 -42 6 -55 0 -12 14 -38 30 -56 17 -18 30 -40 30
-50 0 -10 5 -18 10 -18 6 0 10 7 10 15 0 8 6 15 13 15 32 0 37 23 12 56 -30
39 -31 44 -7 44 23 0 42 19 42 42 0 24 -24 23 -41 -3 l-14 -21 -25 21 c-14 11
-30 25 -37 31 -24 20 -36 11 -29 -21z"/>
<path d="M3150 4213 c-23 -24 -23 -25 -3 -15 22 12 38 30 31 37 -2 2 -14 -8
-28 -22z"/>
<path d="M784 4144 c3 -9 6 -18 6 -20 0 -2 5 -4 10 -4 6 0 10 9 10 20 0 12 -7
20 -16 20 -11 0 -14 -5 -10 -16z"/>
<path d="M922 3913 c-16 -3 -22 -9 -18 -20 3 -8 6 -20 6 -26 0 -7 11 0 25 15
25 28 31 39 18 37 -5 -1 -18 -4 -31 -6z"/>
<path d="M600 3866 c-15 -55 -11 -80 15 -84 18 -2 20 2 19 45 -1 26 -3 49 -4
51 -1 1 -3 6 -4 11 -3 27 -15 17 -26 -23z"/>
<path d="M873 3813 c-16 -6 -17 -33 -3 -33 11 0 26 28 19 34 -2 2 -10 1 -16
-1z"/>
<path d="M3483 3759 c-13 -5 -4 -11 36 -23 29 -8 59 -20 65 -25 7 -6 20 -4 36
4 14 8 19 14 12 15 -7 0 -22 9 -34 19 -21 20 -75 25 -115 10z"/>
<path d="M5455 3739 c-13 -40 50 -55 73 -18 13 20 12 21 -12 15 -19 -5 -28 -2
-32 9 -9 21 -21 19 -29 -6z"/>
<path d="M5543 3463 c-19 -7 -73 -60 -73 -70 0 -6 9 -18 20 -28 20 -18 21 -18
50 15 17 19 30 39 30 46 0 7 5 14 12 16 6 2 8 10 4 16 -7 12 -22 14 -43 5z"/>
<path d="M5128 3367 c-16 -6 -28 -14 -28 -18 0 -7 55 -18 90 -18 8 0 24 -1 35
-3 15 -2 20 3 20 22 0 23 -4 25 -45 26 -25 1 -57 -3 -72 -9z"/>
<path d="M6130 3220 c0 -11 5 -20 10 -20 6 0 10 9 10 20 0 11 -4 20 -10 20 -5
0 -10 -9 -10 -20z"/>
<path d="M6280 3231 c0 -5 14 -17 32 -25 28 -14 34 -14 46 -2 8 8 11 19 8 25
-9 13 -86 15 -86 2z"/>
<path d="M6380 3221 c0 -6 5 -13 10 -16 6 -3 10 1 10 9 0 9 -4 16 -10 16 -5 0
-10 -4 -10 -9z"/>
<path d="M4898 3169 c-7 -5 -30 -8 -51 -7 -21 1 -42 -3 -45 -9 -14 -22 -58
-33 -73 -17 -39 38 -278 -8 -265 -51 1 -5 14 -11 27 -11 13 -1 31 -4 39 -7 44
-16 72 -16 94 -2 16 11 46 16 88 15 34 0 80 0 101 0 20 0 58 -1 85 -1 56 0 93
5 110 15 7 4 18 4 25 -1 15 -9 58 -4 74 9 9 7 4 17 -20 37 -27 24 -44 29 -104
33 -39 3 -77 1 -85 -3z"/>
<path d="M5280 3159 c0 -10 59 -22 94 -17 15 2 26 8 26 13 0 12 -120 17 -120
4z"/>
<path d="M4278 3117 c-31 -7 -38 -13 -38 -34 0 -24 0 -25 68 -17 37 4 74 8 82
9 9 0 22 5 30 10 18 11 -11 23 -62 24 -20 1 -38 5 -40 9 -1 5 -20 4 -40 -1z"/>
<path d="M4120 3098 c0 -8 6 -22 13 -31 10 -14 17 -15 50 -5 36 11 50 27 25
29 -51 4 -66 7 -76 13 -7 4 -12 1 -12 -6z"/>
<path d="M45 2980 c-3 -5 -1 -10 4 -10 6 0 11 5 11 10 0 6 -2 10 -4 10 -3 0
-8 -4 -11 -10z"/>
<path d="M52 2940 c0 -14 2 -19 5 -12 2 6 2 18 0 25 -3 6 -5 1 -5 -13z"/>
</g>
</svg>
